<mxfile host="app.diagrams.net" modified="2023-12-19T07:59:11.651Z" agent="Mozilla/5.0 (Windows NT 10.0; Win64; x64) AppleWebKit/537.36 (KHTML, like Gecko) Chrome/118.0.5993.771 YaBrowser/23.11.2.771 Yowser/2.5 Safari/537.36" etag="EMVlkqe6cGEBEDN0INHh" version="22.1.11" type="device">
  <diagram name="Страница — 1" id="v7RDthpwkHtrzbV6z9pR">
    <mxGraphModel dx="2571" dy="2083" grid="1" gridSize="10" guides="1" tooltips="1" connect="1" arrows="1" fold="1" page="1" pageScale="1" pageWidth="827" pageHeight="1169" math="0" shadow="0">
      <root>
        <mxCell id="0" />
        <mxCell id="1" parent="0" />
        <mxCell id="Se1TBjp7BnoNoSlV3ncN-1" value="Магазин" style="rounded=0;whiteSpace=wrap;html=1;" vertex="1" parent="1">
          <mxGeometry x="190" y="150" width="120" height="60" as="geometry" />
        </mxCell>
        <mxCell id="Se1TBjp7BnoNoSlV3ncN-2" value="Адрес" style="ellipse;whiteSpace=wrap;html=1;" vertex="1" parent="1">
          <mxGeometry x="-80" y="40" width="120" height="80" as="geometry" />
        </mxCell>
        <mxCell id="Se1TBjp7BnoNoSlV3ncN-3" value="Название" style="ellipse;whiteSpace=wrap;html=1;" vertex="1" parent="1">
          <mxGeometry x="-80" y="140" width="120" height="80" as="geometry" />
        </mxCell>
        <mxCell id="Se1TBjp7BnoNoSlV3ncN-4" value="Рейтинг" style="ellipse;whiteSpace=wrap;html=1;" vertex="1" parent="1">
          <mxGeometry x="-80" y="-80" width="120" height="80" as="geometry" />
        </mxCell>
        <mxCell id="Se1TBjp7BnoNoSlV3ncN-5" value="Сайт" style="ellipse;whiteSpace=wrap;html=1;" vertex="1" parent="1">
          <mxGeometry x="-80" y="240" width="120" height="80" as="geometry" />
        </mxCell>
        <mxCell id="Se1TBjp7BnoNoSlV3ncN-14" value="" style="endArrow=none;html=1;rounded=0;exitX=1;exitY=0.5;exitDx=0;exitDy=0;entryX=0;entryY=0.5;entryDx=0;entryDy=0;" edge="1" parent="1" source="Se1TBjp7BnoNoSlV3ncN-2" target="Se1TBjp7BnoNoSlV3ncN-1">
          <mxGeometry width="50" height="50" relative="1" as="geometry">
            <mxPoint x="130" y="90" as="sourcePoint" />
            <mxPoint x="180" y="40" as="targetPoint" />
          </mxGeometry>
        </mxCell>
        <mxCell id="Se1TBjp7BnoNoSlV3ncN-15" value="" style="endArrow=none;html=1;rounded=0;exitX=1;exitY=0.5;exitDx=0;exitDy=0;entryX=0;entryY=0.5;entryDx=0;entryDy=0;" edge="1" parent="1" source="Se1TBjp7BnoNoSlV3ncN-3" target="Se1TBjp7BnoNoSlV3ncN-1">
          <mxGeometry width="50" height="50" relative="1" as="geometry">
            <mxPoint x="110" y="330" as="sourcePoint" />
            <mxPoint x="160" y="280" as="targetPoint" />
          </mxGeometry>
        </mxCell>
        <mxCell id="Se1TBjp7BnoNoSlV3ncN-17" value="" style="endArrow=none;html=1;rounded=0;exitX=1;exitY=0.5;exitDx=0;exitDy=0;entryX=0;entryY=0.5;entryDx=0;entryDy=0;" edge="1" parent="1" source="Se1TBjp7BnoNoSlV3ncN-5" target="Se1TBjp7BnoNoSlV3ncN-1">
          <mxGeometry width="50" height="50" relative="1" as="geometry">
            <mxPoint x="150" y="330" as="sourcePoint" />
            <mxPoint x="200" y="280" as="targetPoint" />
          </mxGeometry>
        </mxCell>
        <mxCell id="Se1TBjp7BnoNoSlV3ncN-18" value="" style="endArrow=none;html=1;rounded=0;exitX=1;exitY=0.5;exitDx=0;exitDy=0;entryX=0;entryY=1;entryDx=0;entryDy=0;" edge="1" parent="1" source="Se1TBjp7BnoNoSlV3ncN-19" target="Se1TBjp7BnoNoSlV3ncN-1">
          <mxGeometry width="50" height="50" relative="1" as="geometry">
            <mxPoint x="40" y="400" as="sourcePoint" />
            <mxPoint x="190" y="290" as="targetPoint" />
          </mxGeometry>
        </mxCell>
        <mxCell id="Se1TBjp7BnoNoSlV3ncN-19" value="Клиенты" style="ellipse;whiteSpace=wrap;html=1;" vertex="1" parent="1">
          <mxGeometry x="-80" y="350" width="120" height="80" as="geometry" />
        </mxCell>
        <mxCell id="Se1TBjp7BnoNoSlV3ncN-20" value="имеет" style="shape=rhombus;perimeter=rhombusPerimeter;whiteSpace=wrap;html=1;align=center;" vertex="1" parent="1">
          <mxGeometry x="200" y="350" width="120" height="60" as="geometry" />
        </mxCell>
        <mxCell id="Se1TBjp7BnoNoSlV3ncN-22" value="Сотрудники" style="rounded=0;whiteSpace=wrap;html=1;" vertex="1" parent="1">
          <mxGeometry x="140" y="525" width="120" height="60" as="geometry" />
        </mxCell>
        <mxCell id="Se1TBjp7BnoNoSlV3ncN-24" value="" style="endArrow=none;html=1;rounded=0;exitX=1;exitY=0.5;exitDx=0;exitDy=0;entryX=0;entryY=0;entryDx=0;entryDy=0;" edge="1" parent="1" source="Se1TBjp7BnoNoSlV3ncN-4" target="Se1TBjp7BnoNoSlV3ncN-1">
          <mxGeometry width="50" height="50" relative="1" as="geometry">
            <mxPoint x="70" y="-50" as="sourcePoint" />
            <mxPoint x="120" y="-100" as="targetPoint" />
          </mxGeometry>
        </mxCell>
        <mxCell id="Se1TBjp7BnoNoSlV3ncN-25" value="Просмотрено" style="rounded=0;whiteSpace=wrap;html=1;" vertex="1" parent="1">
          <mxGeometry x="140" y="-180" width="120" height="60" as="geometry" />
        </mxCell>
        <mxCell id="Se1TBjp7BnoNoSlV3ncN-26" value="Отзыв" style="ellipse;whiteSpace=wrap;html=1;" vertex="1" parent="1">
          <mxGeometry x="-20" y="-270" width="120" height="80" as="geometry" />
        </mxCell>
        <mxCell id="Se1TBjp7BnoNoSlV3ncN-27" value="" style="endArrow=none;html=1;rounded=0;exitX=1;exitY=0.5;exitDx=0;exitDy=0;entryX=0;entryY=0;entryDx=0;entryDy=0;" edge="1" parent="1" source="Se1TBjp7BnoNoSlV3ncN-26" target="Se1TBjp7BnoNoSlV3ncN-25">
          <mxGeometry width="50" height="50" relative="1" as="geometry">
            <mxPoint x="140" y="-170" as="sourcePoint" />
            <mxPoint x="190" y="-220" as="targetPoint" />
          </mxGeometry>
        </mxCell>
        <mxCell id="Se1TBjp7BnoNoSlV3ncN-30" value="Имя" style="ellipse;whiteSpace=wrap;html=1;" vertex="1" parent="1">
          <mxGeometry x="-20" y="585" width="120" height="80" as="geometry" />
        </mxCell>
        <mxCell id="Se1TBjp7BnoNoSlV3ncN-31" value="Фамилия" style="ellipse;whiteSpace=wrap;html=1;" vertex="1" parent="1">
          <mxGeometry x="150" y="650" width="120" height="80" as="geometry" />
        </mxCell>
        <mxCell id="Se1TBjp7BnoNoSlV3ncN-33" value="" style="endArrow=none;html=1;rounded=0;exitX=0.948;exitY=0.258;exitDx=0;exitDy=0;exitPerimeter=0;entryX=0;entryY=1;entryDx=0;entryDy=0;" edge="1" parent="1" source="Se1TBjp7BnoNoSlV3ncN-30" target="Se1TBjp7BnoNoSlV3ncN-22">
          <mxGeometry width="50" height="50" relative="1" as="geometry">
            <mxPoint x="-80" y="670" as="sourcePoint" />
            <mxPoint x="-30" y="620" as="targetPoint" />
          </mxGeometry>
        </mxCell>
        <mxCell id="Se1TBjp7BnoNoSlV3ncN-34" value="" style="endArrow=none;html=1;rounded=0;exitX=0.5;exitY=0;exitDx=0;exitDy=0;entryX=0.5;entryY=1;entryDx=0;entryDy=0;" edge="1" parent="1" source="Se1TBjp7BnoNoSlV3ncN-31" target="Se1TBjp7BnoNoSlV3ncN-22">
          <mxGeometry width="50" height="50" relative="1" as="geometry">
            <mxPoint x="290" y="810" as="sourcePoint" />
            <mxPoint x="340" y="760" as="targetPoint" />
          </mxGeometry>
        </mxCell>
        <mxCell id="Se1TBjp7BnoNoSlV3ncN-35" value="Рейтинг" style="ellipse;whiteSpace=wrap;html=1;" vertex="1" parent="1">
          <mxGeometry x="-80" y="-180" width="120" height="80" as="geometry" />
        </mxCell>
        <mxCell id="Se1TBjp7BnoNoSlV3ncN-36" value="" style="endArrow=none;html=1;rounded=0;exitX=1;exitY=0.5;exitDx=0;exitDy=0;entryX=0;entryY=0.5;entryDx=0;entryDy=0;" edge="1" parent="1" source="Se1TBjp7BnoNoSlV3ncN-35" target="Se1TBjp7BnoNoSlV3ncN-25">
          <mxGeometry width="50" height="50" relative="1" as="geometry">
            <mxPoint x="310" y="90" as="sourcePoint" />
            <mxPoint x="360" y="40" as="targetPoint" />
          </mxGeometry>
        </mxCell>
        <mxCell id="Se1TBjp7BnoNoSlV3ncN-37" value="Предоставляет&lt;br&gt;возможность" style="shape=rhombus;perimeter=rhombusPerimeter;whiteSpace=wrap;html=1;align=center;" vertex="1" parent="1">
          <mxGeometry x="160" y="-10" width="140" height="80" as="geometry" />
        </mxCell>
        <mxCell id="Se1TBjp7BnoNoSlV3ncN-38" value="" style="fontSize=12;html=1;endArrow=ERoneToMany;rounded=0;exitX=0.5;exitY=1;exitDx=0;exitDy=0;entryX=0.5;entryY=0;entryDx=0;entryDy=0;" edge="1" parent="1" source="Se1TBjp7BnoNoSlV3ncN-37" target="Se1TBjp7BnoNoSlV3ncN-1">
          <mxGeometry width="100" height="100" relative="1" as="geometry">
            <mxPoint x="360" y="150" as="sourcePoint" />
            <mxPoint x="440" y="50" as="targetPoint" />
          </mxGeometry>
        </mxCell>
        <mxCell id="Se1TBjp7BnoNoSlV3ncN-40" value="Имеет" style="shape=rhombus;perimeter=rhombusPerimeter;whiteSpace=wrap;html=1;align=center;" vertex="1" parent="1">
          <mxGeometry x="370" y="570" width="120" height="60" as="geometry" />
        </mxCell>
        <mxCell id="Se1TBjp7BnoNoSlV3ncN-42" value="Каталог инструментов" style="rounded=0;whiteSpace=wrap;html=1;" vertex="1" parent="1">
          <mxGeometry x="570" y="570" width="120" height="60" as="geometry" />
        </mxCell>
        <mxCell id="Se1TBjp7BnoNoSlV3ncN-45" value="Инструменты" style="ellipse;whiteSpace=wrap;html=1;" vertex="1" parent="1">
          <mxGeometry x="830" y="585" width="120" height="80" as="geometry" />
        </mxCell>
        <mxCell id="Se1TBjp7BnoNoSlV3ncN-47" value="" style="endArrow=none;html=1;rounded=0;exitX=1;exitY=0.5;exitDx=0;exitDy=0;entryX=0;entryY=0.5;entryDx=0;entryDy=0;" edge="1" parent="1" source="Se1TBjp7BnoNoSlV3ncN-42" target="Se1TBjp7BnoNoSlV3ncN-45">
          <mxGeometry width="50" height="50" relative="1" as="geometry">
            <mxPoint x="550" y="400" as="sourcePoint" />
            <mxPoint x="600" y="350" as="targetPoint" />
          </mxGeometry>
        </mxCell>
        <mxCell id="Se1TBjp7BnoNoSlV3ncN-49" value="Цена" style="ellipse;whiteSpace=wrap;html=1;" vertex="1" parent="1">
          <mxGeometry x="707" y="680" width="120" height="80" as="geometry" />
        </mxCell>
        <mxCell id="Se1TBjp7BnoNoSlV3ncN-50" value="" style="endArrow=none;html=1;rounded=0;exitX=0.5;exitY=1;exitDx=0;exitDy=0;entryX=0;entryY=0.5;entryDx=0;entryDy=0;" edge="1" parent="1" source="Se1TBjp7BnoNoSlV3ncN-42" target="Se1TBjp7BnoNoSlV3ncN-49">
          <mxGeometry width="50" height="50" relative="1" as="geometry">
            <mxPoint x="630" y="740" as="sourcePoint" />
            <mxPoint x="680" y="690" as="targetPoint" />
          </mxGeometry>
        </mxCell>
        <mxCell id="Se1TBjp7BnoNoSlV3ncN-51" value="Склад" style="rounded=0;whiteSpace=wrap;html=1;" vertex="1" parent="1">
          <mxGeometry x="710" y="-120" width="120" height="60" as="geometry" />
        </mxCell>
        <mxCell id="Se1TBjp7BnoNoSlV3ncN-52" value="Инструменты" style="rounded=0;whiteSpace=wrap;html=1;" vertex="1" parent="1">
          <mxGeometry x="710" y="-20" width="120" height="60" as="geometry" />
        </mxCell>
        <mxCell id="Se1TBjp7BnoNoSlV3ncN-53" value="Фабрика" style="rounded=0;whiteSpace=wrap;html=1;" vertex="1" parent="1">
          <mxGeometry x="710" y="80" width="120" height="60" as="geometry" />
        </mxCell>
        <mxCell id="Se1TBjp7BnoNoSlV3ncN-54" value="Имеет" style="shape=rhombus;perimeter=rhombusPerimeter;whiteSpace=wrap;html=1;align=center;" vertex="1" parent="1">
          <mxGeometry x="490" y="-120" width="120" height="60" as="geometry" />
        </mxCell>
        <mxCell id="Se1TBjp7BnoNoSlV3ncN-55" value="Имеет" style="shape=rhombus;perimeter=rhombusPerimeter;whiteSpace=wrap;html=1;align=center;" vertex="1" parent="1">
          <mxGeometry x="480" y="-20" width="120" height="60" as="geometry" />
        </mxCell>
        <mxCell id="Se1TBjp7BnoNoSlV3ncN-56" value="Принадлежит" style="shape=rhombus;perimeter=rhombusPerimeter;whiteSpace=wrap;html=1;align=center;" vertex="1" parent="1">
          <mxGeometry x="480" y="90" width="120" height="60" as="geometry" />
        </mxCell>
        <mxCell id="Se1TBjp7BnoNoSlV3ncN-57" value="" style="edgeStyle=entityRelationEdgeStyle;fontSize=12;html=1;endArrow=ERoneToMany;rounded=0;exitX=0;exitY=0.5;exitDx=0;exitDy=0;entryX=1;entryY=0.25;entryDx=0;entryDy=0;" edge="1" parent="1" source="Se1TBjp7BnoNoSlV3ncN-54" target="Se1TBjp7BnoNoSlV3ncN-1">
          <mxGeometry width="100" height="100" relative="1" as="geometry">
            <mxPoint x="320" y="120" as="sourcePoint" />
            <mxPoint x="420" y="20" as="targetPoint" />
          </mxGeometry>
        </mxCell>
        <mxCell id="Se1TBjp7BnoNoSlV3ncN-58" value="" style="edgeStyle=entityRelationEdgeStyle;fontSize=12;html=1;endArrow=ERoneToMany;rounded=0;entryX=1;entryY=0.5;entryDx=0;entryDy=0;exitX=0;exitY=0.5;exitDx=0;exitDy=0;" edge="1" parent="1" source="Se1TBjp7BnoNoSlV3ncN-55" target="Se1TBjp7BnoNoSlV3ncN-1">
          <mxGeometry width="100" height="100" relative="1" as="geometry">
            <mxPoint x="310" y="340" as="sourcePoint" />
            <mxPoint x="410" y="240" as="targetPoint" />
          </mxGeometry>
        </mxCell>
        <mxCell id="Se1TBjp7BnoNoSlV3ncN-59" value="" style="edgeStyle=entityRelationEdgeStyle;fontSize=12;html=1;endArrow=ERoneToMany;rounded=0;entryX=1;entryY=0.75;entryDx=0;entryDy=0;" edge="1" parent="1" source="Se1TBjp7BnoNoSlV3ncN-56" target="Se1TBjp7BnoNoSlV3ncN-1">
          <mxGeometry width="100" height="100" relative="1" as="geometry">
            <mxPoint x="390" y="320" as="sourcePoint" />
            <mxPoint x="490" y="220" as="targetPoint" />
          </mxGeometry>
        </mxCell>
        <mxCell id="Se1TBjp7BnoNoSlV3ncN-62" value="" style="edgeStyle=entityRelationEdgeStyle;fontSize=12;html=1;endArrow=ERoneToMany;rounded=0;exitX=1;exitY=0.5;exitDx=0;exitDy=0;entryX=0;entryY=0.5;entryDx=0;entryDy=0;" edge="1" parent="1" source="Se1TBjp7BnoNoSlV3ncN-55" target="Se1TBjp7BnoNoSlV3ncN-52">
          <mxGeometry width="100" height="100" relative="1" as="geometry">
            <mxPoint x="610" y="120" as="sourcePoint" />
            <mxPoint x="710" y="20" as="targetPoint" />
          </mxGeometry>
        </mxCell>
        <mxCell id="Se1TBjp7BnoNoSlV3ncN-64" value="Название" style="ellipse;whiteSpace=wrap;html=1;" vertex="1" parent="1">
          <mxGeometry x="930" y="-130" width="120" height="80" as="geometry" />
        </mxCell>
        <mxCell id="Se1TBjp7BnoNoSlV3ncN-65" value="Цена" style="ellipse;whiteSpace=wrap;html=1;" vertex="1" parent="1">
          <mxGeometry x="940" y="-30" width="120" height="80" as="geometry" />
        </mxCell>
        <mxCell id="Se1TBjp7BnoNoSlV3ncN-66" value="" style="endArrow=none;html=1;rounded=0;exitX=1;exitY=0.25;exitDx=0;exitDy=0;entryX=0;entryY=0.5;entryDx=0;entryDy=0;" edge="1" parent="1" source="Se1TBjp7BnoNoSlV3ncN-52" target="Se1TBjp7BnoNoSlV3ncN-64">
          <mxGeometry width="50" height="50" relative="1" as="geometry">
            <mxPoint x="850" as="sourcePoint" />
            <mxPoint x="900" y="-50" as="targetPoint" />
          </mxGeometry>
        </mxCell>
        <mxCell id="Se1TBjp7BnoNoSlV3ncN-67" value="" style="endArrow=none;html=1;rounded=0;exitX=1;exitY=0.5;exitDx=0;exitDy=0;entryX=0;entryY=0.5;entryDx=0;entryDy=0;" edge="1" parent="1" source="Se1TBjp7BnoNoSlV3ncN-52" target="Se1TBjp7BnoNoSlV3ncN-65">
          <mxGeometry width="50" height="50" relative="1" as="geometry">
            <mxPoint x="860" y="110" as="sourcePoint" />
            <mxPoint x="910" y="60" as="targetPoint" />
          </mxGeometry>
        </mxCell>
        <mxCell id="Se1TBjp7BnoNoSlV3ncN-68" value="Название" style="ellipse;whiteSpace=wrap;html=1;" vertex="1" parent="1">
          <mxGeometry x="910" y="70" width="120" height="80" as="geometry" />
        </mxCell>
        <mxCell id="Se1TBjp7BnoNoSlV3ncN-69" value="" style="endArrow=none;html=1;rounded=0;exitX=1;exitY=0.5;exitDx=0;exitDy=0;entryX=0;entryY=0.5;entryDx=0;entryDy=0;" edge="1" parent="1" source="Se1TBjp7BnoNoSlV3ncN-53" target="Se1TBjp7BnoNoSlV3ncN-68">
          <mxGeometry width="50" height="50" relative="1" as="geometry">
            <mxPoint x="800" y="280" as="sourcePoint" />
            <mxPoint x="850" y="230" as="targetPoint" />
          </mxGeometry>
        </mxCell>
        <mxCell id="Se1TBjp7BnoNoSlV3ncN-70" value="Имеет" style="shape=rhombus;perimeter=rhombusPerimeter;whiteSpace=wrap;html=1;align=center;" vertex="1" parent="1">
          <mxGeometry x="830" y="190" width="120" height="60" as="geometry" />
        </mxCell>
        <mxCell id="Se1TBjp7BnoNoSlV3ncN-71" value="Поставщик" style="rounded=0;whiteSpace=wrap;html=1;" vertex="1" parent="1">
          <mxGeometry x="1000" y="220" width="120" height="60" as="geometry" />
        </mxCell>
        <mxCell id="Se1TBjp7BnoNoSlV3ncN-74" value="Имя" style="ellipse;whiteSpace=wrap;html=1;" vertex="1" parent="1">
          <mxGeometry x="1181" y="170" width="120" height="80" as="geometry" />
        </mxCell>
        <mxCell id="Se1TBjp7BnoNoSlV3ncN-75" value="Фамилия" style="ellipse;whiteSpace=wrap;html=1;" vertex="1" parent="1">
          <mxGeometry x="1181" y="300" width="120" height="80" as="geometry" />
        </mxCell>
        <mxCell id="Se1TBjp7BnoNoSlV3ncN-76" value="" style="endArrow=none;html=1;rounded=0;exitX=1;exitY=0.25;exitDx=0;exitDy=0;entryX=0;entryY=0.5;entryDx=0;entryDy=0;" edge="1" parent="1" source="Se1TBjp7BnoNoSlV3ncN-71" target="Se1TBjp7BnoNoSlV3ncN-74">
          <mxGeometry width="50" height="50" relative="1" as="geometry">
            <mxPoint x="1100" y="190" as="sourcePoint" />
            <mxPoint x="1150" y="140" as="targetPoint" />
          </mxGeometry>
        </mxCell>
        <mxCell id="Se1TBjp7BnoNoSlV3ncN-79" value="" style="endArrow=none;html=1;rounded=0;exitX=1;exitY=0.25;exitDx=0;exitDy=0;entryX=0;entryY=0.5;entryDx=0;entryDy=0;" edge="1" parent="1" source="Se1TBjp7BnoNoSlV3ncN-71" target="Se1TBjp7BnoNoSlV3ncN-75">
          <mxGeometry width="50" height="50" relative="1" as="geometry">
            <mxPoint x="1090" y="350" as="sourcePoint" />
            <mxPoint x="1140" y="300" as="targetPoint" />
          </mxGeometry>
        </mxCell>
        <mxCell id="Se1TBjp7BnoNoSlV3ncN-80" value="" style="fontSize=12;html=1;endArrow=ERoneToMany;rounded=0;entryX=0.5;entryY=0;entryDx=0;entryDy=0;exitX=0.5;exitY=1;exitDx=0;exitDy=0;" edge="1" parent="1" source="Se1TBjp7BnoNoSlV3ncN-20" target="Se1TBjp7BnoNoSlV3ncN-22">
          <mxGeometry width="100" height="100" relative="1" as="geometry">
            <mxPoint x="470" y="450" as="sourcePoint" />
            <mxPoint x="570" y="350" as="targetPoint" />
          </mxGeometry>
        </mxCell>
        <mxCell id="Se1TBjp7BnoNoSlV3ncN-81" value="" style="edgeStyle=entityRelationEdgeStyle;fontSize=12;html=1;endArrow=ERoneToMany;rounded=0;entryX=1;entryY=0.5;entryDx=0;entryDy=0;exitX=0;exitY=0.5;exitDx=0;exitDy=0;" edge="1" parent="1" source="Se1TBjp7BnoNoSlV3ncN-40" target="Se1TBjp7BnoNoSlV3ncN-22">
          <mxGeometry width="100" height="100" relative="1" as="geometry">
            <mxPoint x="440" y="490" as="sourcePoint" />
            <mxPoint x="540" y="390" as="targetPoint" />
          </mxGeometry>
        </mxCell>
        <mxCell id="Se1TBjp7BnoNoSlV3ncN-82" value="" style="edgeStyle=entityRelationEdgeStyle;fontSize=12;html=1;endArrow=ERoneToMany;rounded=0;exitX=1;exitY=0.5;exitDx=0;exitDy=0;entryX=0;entryY=0.5;entryDx=0;entryDy=0;" edge="1" parent="1" source="Se1TBjp7BnoNoSlV3ncN-40" target="Se1TBjp7BnoNoSlV3ncN-42">
          <mxGeometry width="100" height="100" relative="1" as="geometry">
            <mxPoint x="460" y="460" as="sourcePoint" />
            <mxPoint x="560" y="360" as="targetPoint" />
          </mxGeometry>
        </mxCell>
        <mxCell id="Se1TBjp7BnoNoSlV3ncN-86" value="" style="edgeStyle=entityRelationEdgeStyle;fontSize=12;html=1;endArrow=ERmandOne;rounded=0;exitX=1;exitY=0.5;exitDx=0;exitDy=0;entryX=0;entryY=0.5;entryDx=0;entryDy=0;" edge="1" parent="1" source="Se1TBjp7BnoNoSlV3ncN-54" target="Se1TBjp7BnoNoSlV3ncN-51">
          <mxGeometry width="100" height="100" relative="1" as="geometry">
            <mxPoint x="860" y="-140" as="sourcePoint" />
            <mxPoint x="960" y="-240" as="targetPoint" />
          </mxGeometry>
        </mxCell>
        <mxCell id="Se1TBjp7BnoNoSlV3ncN-87" value="" style="edgeStyle=entityRelationEdgeStyle;fontSize=12;html=1;endArrow=ERmandOne;rounded=0;exitX=1;exitY=0.5;exitDx=0;exitDy=0;entryX=0;entryY=0.5;entryDx=0;entryDy=0;" edge="1" parent="1" source="Se1TBjp7BnoNoSlV3ncN-56" target="Se1TBjp7BnoNoSlV3ncN-53">
          <mxGeometry width="100" height="100" relative="1" as="geometry">
            <mxPoint x="550" y="350" as="sourcePoint" />
            <mxPoint x="650" y="250" as="targetPoint" />
          </mxGeometry>
        </mxCell>
        <mxCell id="Se1TBjp7BnoNoSlV3ncN-90" value="" style="fontSize=12;html=1;endArrow=ERmandOne;rounded=0;exitX=0.5;exitY=0;exitDx=0;exitDy=0;entryX=0.5;entryY=1;entryDx=0;entryDy=0;" edge="1" parent="1" source="Se1TBjp7BnoNoSlV3ncN-37" target="Se1TBjp7BnoNoSlV3ncN-25">
          <mxGeometry width="100" height="100" relative="1" as="geometry">
            <mxPoint x="280" y="-50" as="sourcePoint" />
            <mxPoint x="380" y="-150" as="targetPoint" />
          </mxGeometry>
        </mxCell>
        <mxCell id="Se1TBjp7BnoNoSlV3ncN-92" value="" style="fontSize=12;html=1;endArrow=ERoneToMany;rounded=0;entryX=0;entryY=0.5;entryDx=0;entryDy=0;exitX=1;exitY=0.5;exitDx=0;exitDy=0;" edge="1" parent="1" source="Se1TBjp7BnoNoSlV3ncN-70" target="Se1TBjp7BnoNoSlV3ncN-71">
          <mxGeometry width="100" height="100" relative="1" as="geometry">
            <mxPoint x="980" y="500" as="sourcePoint" />
            <mxPoint x="1080" y="400" as="targetPoint" />
          </mxGeometry>
        </mxCell>
        <mxCell id="Se1TBjp7BnoNoSlV3ncN-93" value="" style="fontSize=12;html=1;endArrow=ERmandOne;rounded=0;entryX=0.6;entryY=1.032;entryDx=0;entryDy=0;entryPerimeter=0;exitX=0;exitY=0.5;exitDx=0;exitDy=0;" edge="1" parent="1" source="Se1TBjp7BnoNoSlV3ncN-70" target="Se1TBjp7BnoNoSlV3ncN-53">
          <mxGeometry width="100" height="100" relative="1" as="geometry">
            <mxPoint x="620" y="320" as="sourcePoint" />
            <mxPoint x="720" y="220" as="targetPoint" />
          </mxGeometry>
        </mxCell>
        <mxCell id="Se1TBjp7BnoNoSlV3ncN-94" value="" style="fontSize=12;html=1;endArrow=ERmandOne;rounded=0;entryX=0.5;entryY=1;entryDx=0;entryDy=0;exitX=0.5;exitY=0;exitDx=0;exitDy=0;" edge="1" parent="1" source="Se1TBjp7BnoNoSlV3ncN-20" target="Se1TBjp7BnoNoSlV3ncN-1">
          <mxGeometry width="100" height="100" relative="1" as="geometry">
            <mxPoint x="360" y="370" as="sourcePoint" />
            <mxPoint x="460" y="270" as="targetPoint" />
          </mxGeometry>
        </mxCell>
        <mxCell id="Se1TBjp7BnoNoSlV3ncN-95" value="Сайт" style="rounded=0;whiteSpace=wrap;html=1;" vertex="1" parent="1">
          <mxGeometry x="440" y="370" width="120" height="60" as="geometry" />
        </mxCell>
        <mxCell id="Se1TBjp7BnoNoSlV3ncN-96" value="Имеет" style="shape=rhombus;perimeter=rhombusPerimeter;whiteSpace=wrap;html=1;align=center;" vertex="1" parent="1">
          <mxGeometry x="293" y="270" width="120" height="60" as="geometry" />
        </mxCell>
        <mxCell id="Se1TBjp7BnoNoSlV3ncN-98" value="" style="fontSize=12;html=1;endArrow=ERmandOne;rounded=0;exitX=0.5;exitY=1;exitDx=0;exitDy=0;entryX=0;entryY=0;entryDx=0;entryDy=0;" edge="1" parent="1" source="Se1TBjp7BnoNoSlV3ncN-96" target="Se1TBjp7BnoNoSlV3ncN-95">
          <mxGeometry width="100" height="100" relative="1" as="geometry">
            <mxPoint x="560" y="350" as="sourcePoint" />
            <mxPoint x="660" y="250" as="targetPoint" />
          </mxGeometry>
        </mxCell>
        <mxCell id="Se1TBjp7BnoNoSlV3ncN-99" value="Имеет" style="shape=rhombus;perimeter=rhombusPerimeter;whiteSpace=wrap;html=1;align=center;" vertex="1" parent="1">
          <mxGeometry x="570" y="450" width="120" height="60" as="geometry" />
        </mxCell>
        <mxCell id="Se1TBjp7BnoNoSlV3ncN-100" value="" style="fontSize=12;html=1;endArrow=ERmandOne;rounded=0;entryX=0.5;entryY=1;entryDx=0;entryDy=0;" edge="1" parent="1" source="Se1TBjp7BnoNoSlV3ncN-99" target="Se1TBjp7BnoNoSlV3ncN-95">
          <mxGeometry width="100" height="100" relative="1" as="geometry">
            <mxPoint x="760" y="500" as="sourcePoint" />
            <mxPoint x="860" y="400" as="targetPoint" />
          </mxGeometry>
        </mxCell>
        <mxCell id="Se1TBjp7BnoNoSlV3ncN-101" value="" style="fontSize=12;html=1;endArrow=ERmandOne;rounded=0;exitX=0.5;exitY=1;exitDx=0;exitDy=0;entryX=0.5;entryY=0;entryDx=0;entryDy=0;" edge="1" parent="1" source="Se1TBjp7BnoNoSlV3ncN-99" target="Se1TBjp7BnoNoSlV3ncN-42">
          <mxGeometry width="100" height="100" relative="1" as="geometry">
            <mxPoint x="840" y="460" as="sourcePoint" />
            <mxPoint x="940" y="360" as="targetPoint" />
          </mxGeometry>
        </mxCell>
        <mxCell id="Se1TBjp7BnoNoSlV3ncN-102" value="" style="fontSize=12;html=1;endArrow=ERoneToMany;rounded=0;entryX=0.75;entryY=1;entryDx=0;entryDy=0;exitX=0.5;exitY=0;exitDx=0;exitDy=0;" edge="1" parent="1" source="Se1TBjp7BnoNoSlV3ncN-96" target="Se1TBjp7BnoNoSlV3ncN-1">
          <mxGeometry width="100" height="100" relative="1" as="geometry">
            <mxPoint x="630" y="300" as="sourcePoint" />
            <mxPoint x="730" y="200" as="targetPoint" />
          </mxGeometry>
        </mxCell>
      </root>
    </mxGraphModel>
  </diagram>
</mxfile>
